<?xml version="1.0" encoding="UTF-8"?>
<svg version="1.1" viewBox="0 0 988 1352" width="1280" height="1280" xmlns="http://www.w3.org/2000/svg">
<path transform="translate(724,118)" d="m0 0h12l1 2v112l-4 4-20 6-17 2-9 4-1 6-1 203v332l-1 110-3 32-8 23-12 23-10 13-9 10-10 9-17 12-16 8-15 6-25 5h-17l-3-3-1-2-1-64v-686l-2-8-4-3-10 1-27 5-38 6-60 12-25 4-22 4-26 4h-6l-2-2-1-21v-63l1-31 6-4 29-5 33-6 40-7 19-3 25-5 44-8 31-5 26-5 19-3 57-12 21-3 37-6z" fill="#1091B6"/>
<path transform="translate(469,343)" d="m0 0 8 1 3 3 1 216 1 413v133l1 1h10l25-5 26-6 30-5 31-5 27-4 24-4 21-4 16-3h9l4 5 1 3v21l-1 17-1 69-4 4-11 3-32 6-43 7-27 5-35 6-45 8-31 6-49 9-62 11-47 9-26 4h-7l-3-4v-112l9-5 14-2 3-2 16-2 7-2 2-6v-367l1-285 1-16 4-18 6-17 10-19 10-14 10-10 6-7 8-7 11-8 23-11 21-6z" fill="#1091B6"/>
<path transform="translate(724,118)" d="m0 0h12l1 2v112l-4 4-20 6-17 2-9 4h-3v5l-3 5-2-1v-3l-3-1-2-6-1-4 3-2 17-3 9-3 19-4 6-3 1-4 3-1 1-9-3-16-2-7-5-4-8-4h-7l-4-4h-5l-3-4-5 1-6-4-9-2v-2l-4 1-6-1-10-1-7 1h-26l-11 1-29 1-7 1h-9l-8 2-14 2h-8l-5 1-20 1-16 2-18 1-6 1-1-1-7 1-16 2-9 1-15 2 2 3 16-1 7-1 3 1v2l-5 2-10-2-3 2h-3v2l-6 1-4 1-13 1-20 1-5 1-16 2-16 1-8 3-11 5-4 2-4 11-6 7h-2v-37l6-4 29-5 33-6 40-7 19-3 25-5 44-8 31-5 26-5 19-3 57-12 21-3 37-6z" fill="#096E8C"/>
<path transform="translate(469,343)" d="m0 0 8 1 3 3v65l-3 7h-2l-2-5-3-5-2-1-15-2-5-4h-9l-4-3h-11l-5-2h-8l-7-1-1 3-3-1h-8l-11 3-6 2-1 2-2-1-2 4-5 4-3 4h-3v4l1-3 4 1-2 4-6 9-3 1-3 11-3 2h-3l-1-8 7-16 6-11 10-14 10-10 6-7 8-7 11-8 23-11 21-6z" fill="#096E8C"/>
<path transform="translate(356,1220)" d="m0 0 2 1 1 3 5 2h8l5 1 4-2 6-1h24l5-2 10-1 4 2 5 2-4 2-5 2-7 3-12 3h-6l-12 3-9 2-6 1-10 1-6 2-14 1-7 2-9 1-5 2-8 1-2-1v2l-11-1-2-5 3-4 3-1 2-4 5-3 6-1v-2h2l1 2h5l5-1 6 2 3-1v-2h10l-1-9z" fill="#096E8C"/>
<path transform="translate(553,989)" d="m0 0h2l2 5h7v-2l4 2 6 2 10 1h14l3 1 5-2 3 4 4 2v2l-5 2-2 5-10 7-18 7-17 3h-9l-2-3-1-17 1-11 2-4z" fill="#096E8C"/>
<path transform="translate(385,1157)" d="m0 0 10 1 10-1-3 4-4 1h15v2l-7 5-9-1-16 4h-5l-2-5-7 1-7-1-6 3-9-1-5-3-1-3 4-2 16 1h16v-2l5 1 1-3z" fill="#096E8C"/>
<path transform="translate(634,929)" d="m0 0 9 3 8-1 5-1 8 5 2 9-2 6-3 1-1-8h-2l-1-2-16-1-7-1-1-3z" fill="#096E8C"/>
<path transform="translate(382,438)" d="m0 0 5 2 4 2-2 6-13-1-8 2-3-6 11-4z" fill="#096E8C"/>
<path transform="translate(472,440)" d="m0 0 2 1v2l4 1 2-1v35h-2l-1-4-1-11-1-5-3-13z" fill="#096E8C"/>
<path transform="translate(549,935)" d="m0 0h1v13l-1 4-1 18h-1v-29z" fill="#096E8C"/>
<path transform="translate(655,920)" d="m0 0 3 1-5 3-1 6h-2v-2l-4-1v-3l7-3z" fill="#096E8D"/>
</svg>
